<svg xmlns="http://www.w3.org/2000/svg" width="16" height="16"><path d="M13 1a2.979 2.979 0 00-1.804.617C10.467.64 9.313 0 8 0S5.533.64 4.804 1.617A2.987 2.987 0 000 4c0 1.304 2 7 2 7v4a1 1 0 001 1h10a1 1 0 001-1v-4s2-5.696 2-7a3 3 0 00-3-3zm0 14H3v-3h10v3zm0-4h-1.378L12 6.29a.25.25 0 00-.229-.269l-.5-.04h-.02a.25.25 0 00-.25.23L10.62 11H8.48V6.25A.25.25 0 008.23 6h-.5a.25.25 0 00-.25.25V11h-2.1l-.383-4.79a.25.25 0 00-.25-.23h-.02l-.5.04a.25.25 0 00-.229.269L4.378 11H3L1 4a2 2 0 012-2c.435.002.856.148 1.2.414l.803.61.603-.807a2.97 2.97 0 014.789 0l.603.807.803-.61a1.976 1.976 0 011.2-.414c1.104.001 2 .896 2 2 0 .71-2 7-2 7z" fill="#a3a3a3" fill-rule="evenodd"/></svg>