<svg xmlns="http://www.w3.org/2000/svg" width="12" height="16"><path d="M11.5 1h.125A.375.375 0 0012 .625v-.25A.375.375 0 0011.625 0H.375A.375.375 0 000 .375v.25C0 .832.168 1 .375 1H.5c0 2.87 1.378 6.052 4.05 7C1.87 8.95.5 12.14.5 15H.375a.375.375 0 00-.375.375v.25c0 .207.168.375.375.375h11.25a.375.375 0 00.375-.375v-.25a.375.375 0 00-.375-.375H11.5c0-2.87-1.378-6.052-4.05-7 2.682-.95 4.05-4.14 4.05-7zm-10 0h9c0 3.452-2.015 6.25-4.5 6.25S1.5 4.452 1.5 1zm9 14h-9c0-3.452 2.015-6.25 4.5-6.25s4.5 2.798 4.5 6.25zM8.427 4.59l-.212.273a.377.377 0 01-.29.136H4.074a.38.38 0 01-.29-.136l-.212-.273A.374.374 0 013.879 4h4.24c.304 0 .483.344.307.59zm.5 8.41c.17 0 .32.114.363.278l.064.263a.375.375 0 01-.366.458H3.013a.376.376 0 01-.366-.458l.064-.263A.376.376 0 013.074 13h5.85z" fill="#a3a3a3" fill-rule="evenodd"/></svg>